<svg xmlns="http://www.w3.org/2000/svg" width="162" height="24" viewBox="0 0 162 24" fill="none"><g clip-path="url(#clip0_3383_14601)"><path d="M33.6783 0.179388C32.8023 -0.180882 31.8087 0.01433 31.1406 0.682496L22.9417 8.8703V13.6094L31.7627 4.81211V20.3672H16.7107L14.9173 17.4628L12.0177 20.3672H12.0114L8.65625 23.7223H32.7959C34.0688 23.716 35.1146 22.6748 35.1146 21.3909V2.32672C35.1146 1.38082 34.5528 0.539657 33.6767 0.179388H33.6783Z" fill="white"></path><path d="M8.09417 20.3655L18.3896 10.0716V19.2958H21.7447V7.59259C21.7447 6.64668 21.1829 5.80553 20.3068 5.44526C19.4308 5.08499 18.4372 5.2802 17.7691 5.94836L0 23.7143H7.21809L10.5732 20.3655H8.09417Z" fill="white"></path><path d="M98.4053 12.4554C97.7213 11.4349 96.8436 10.6303 95.7866 10.0526C94.7296 9.47647 93.5758 9.18762 92.3505 9.18762C91.3173 9.18762 90.3571 9.37966 89.4795 9.76374C88.6018 10.1478 87.8099 10.7366 87.1258 11.4937C86.4767 12.1904 85.972 12.9839 85.6356 13.8362C85.2991 14.6885 85.1309 15.6265 85.1309 16.5993C85.1309 17.5722 85.3229 18.4848 85.6832 19.3974C86.0561 20.31 86.5719 21.1146 87.2211 21.8002C87.9178 22.5335 88.6986 23.0858 89.5509 23.4461C90.4032 23.8063 91.365 23.9984 92.3981 23.9984C93.936 23.9984 95.293 23.5778 96.4468 22.7604C97.6006 21.9431 98.5132 20.7416 99.1496 19.1926L99.2337 18.9879H96.1342L96.0865 19.0593C95.7025 19.7434 95.1851 20.2846 94.5375 20.6686C93.8884 21.0416 93.1679 21.2336 92.387 21.2336C91.2935 21.2336 90.3206 20.8861 89.5287 20.2004C88.7716 19.5513 88.2796 18.6991 88.0638 17.6659H99.5956V17.1247C99.5956 16.1645 99.4988 15.2868 99.3068 14.5298C99.1147 13.7854 98.8148 13.0887 98.4053 12.4523V12.4554ZM88.159 15.1583C88.459 14.1854 88.9764 13.3918 89.6969 12.8157C90.4651 12.2031 91.3792 11.8904 92.4235 11.8904C93.4679 11.8904 94.3217 12.1904 95.0549 12.7919C95.739 13.3569 96.2437 14.1489 96.5436 15.1583H88.159Z" fill="white"></path><path d="M65.1195 15.6266L62.9262 15.0441C62.2437 14.8679 61.7565 14.633 61.4771 14.3474C61.2057 14.0696 61.0772 13.7474 61.0867 13.3507C61.0946 13.0094 61.1883 12.7238 61.374 12.4746C61.5581 12.227 61.8231 12.0366 62.1643 11.9064C62.4929 11.781 62.8817 11.7191 63.3182 11.7207C63.3467 11.7207 63.3753 11.7207 63.4055 11.7207C64.9608 11.7287 65.302 13.1586 65.3576 13.6982L65.3846 13.9315H68.4524C68.4524 13.4142 68.2048 12.1175 67.7763 11.4382C66.7336 9.79241 64.4228 9.21153 63.4674 9.18931C63.4102 9.18931 63.3531 9.18773 63.2959 9.18614C62.3135 9.18138 61.4263 9.34009 60.6598 9.65909C59.8408 9.99873 59.1901 10.4971 58.7235 11.1398C58.2553 11.7858 58.0077 12.5524 57.9871 13.4348C57.9617 14.4807 58.2776 15.3631 58.9267 16.0551C59.5663 16.7391 60.5487 17.2565 61.8485 17.5946L64.0387 18.1627C64.7307 18.3564 65.21 18.5865 65.4655 18.8468C65.7115 19.0975 65.8274 19.4181 65.8163 19.8419C65.8083 20.1879 65.7067 20.4751 65.5084 20.7179C65.3084 20.9624 65.0211 21.1496 64.6545 21.2766C64.3038 21.3972 63.8768 21.4559 63.3832 21.4544C63.3451 21.4544 63.3071 21.4544 63.2674 21.4528C62.4596 21.4337 61.8326 21.248 61.401 20.9036C60.928 20.5259 60.6852 20.2482 60.5788 19.6895L60.5344 19.4276L57.4824 19.3546C57.4824 19.8355 57.876 21.1306 58.3188 21.7797C58.7791 22.4511 59.4298 22.9891 60.2503 23.3763C61.0661 23.762 62.0612 23.9699 63.2055 23.9969C63.2642 23.9969 63.3213 23.9985 63.3801 24.0001C64.3879 24.0048 65.3052 23.8398 66.1099 23.5096C66.9653 23.1573 67.6541 22.6479 68.154 21.9956C68.6587 21.3369 68.9238 20.5577 68.946 19.6657C68.9714 18.6198 68.6841 17.766 68.0953 17.1279C67.5144 16.4979 66.5146 15.9932 65.1227 15.6266H65.1195Z" fill="white"></path><path d="M76.9861 11.9396C77.8987 11.9396 78.7034 12.1444 79.3525 12.5396C80.0127 12.9363 80.5539 13.5601 80.9745 14.3647L81.011 14.4488H84.0138L83.9535 14.2568C83.425 12.6586 82.56 11.3984 81.3824 10.5208C80.2048 9.63201 78.8002 9.18762 77.1909 9.18762C76.1704 9.18762 75.1975 9.39236 74.296 9.78754C73.3946 10.1843 72.5788 10.7731 71.8583 11.5413C71.2091 12.238 70.7044 13.0316 70.368 13.8838C70.0315 14.7361 69.8633 15.6614 69.8633 16.6343C69.8633 17.6071 70.0553 18.5197 70.4156 19.4323C70.7886 20.3449 71.3044 21.1495 71.9535 21.8352C72.6375 22.5557 73.4184 23.0969 74.2595 23.4572C75.1118 23.8174 76.0609 23.9984 77.1068 23.9984C78.7526 23.9984 80.1825 23.554 81.3348 22.689C82.4886 21.824 83.3647 20.5274 83.9408 18.8578L84.0122 18.653H80.9967L80.984 18.7006C80.6111 19.5053 80.0714 20.1306 79.3985 20.575C78.7256 21.0067 77.9686 21.2352 77.129 21.2352C75.8911 21.2352 74.834 20.7908 74.0056 19.9132C73.1644 19.0244 72.7438 17.9071 72.7438 16.5866C72.7438 15.2662 73.1644 14.16 73.9818 13.2712C74.7991 12.3824 75.8069 11.9381 76.9846 11.9381L76.9861 11.9396Z" fill="white"></path><path d="M107.324 9.32581C103.939 9.32581 101.186 12.1778 101.186 15.6837V23.7239H104.201V15.6837C104.201 13.8411 105.602 12.3413 107.324 12.3413C109.046 12.3413 110.448 13.8411 110.448 15.6837V23.7239H113.463V15.6837C113.463 12.1778 110.71 9.32581 107.324 9.32581Z" fill="white"></path><path d="M161.021 4.93591H157.583L153.261 11.6557L148.94 4.93591H145.502L151.542 14.3283L145.502 23.7191H148.94L153.261 16.9994L157.583 23.7191H161.021L154.98 14.3283L161.021 4.93591Z" fill="white"></path><path d="M126.876 11.1224C126.263 10.5574 125.603 10.1257 124.893 9.82574C124.089 9.48928 123.187 9.30994 122.238 9.30994C121.169 9.30994 120.208 9.49087 119.38 9.83844C118.539 10.186 117.771 10.7399 117.061 11.4716C116.412 12.1445 115.92 12.9253 115.572 13.8014C115.223 14.6791 115.057 15.6266 115.057 16.5994C115.057 18.7008 115.766 20.4799 117.147 21.8845C118.54 23.2906 120.307 23.9985 122.395 23.9985C123.297 23.9985 124.149 23.8175 124.943 23.4827C125.627 23.1827 126.276 22.7621 126.852 22.2098V23.7112H129.98V4.94861H126.877V11.1224H126.876ZM125.627 19.9879C124.725 20.9005 123.681 21.3575 122.516 21.3575C121.23 21.3575 120.126 20.9005 119.248 19.9879C118.359 19.0753 117.915 17.9342 117.915 16.601C117.915 15.2679 118.359 14.2347 119.248 13.3459C120.137 12.4571 121.218 12.0128 122.467 12.0128C123.716 12.0128 124.749 12.4809 125.638 13.4062C126.527 14.3315 126.971 15.4726 126.971 16.7693C126.984 17.9945 126.527 19.0753 125.625 19.9879H125.627Z" fill="white"></path><path d="M46.967 4.9375L39.7188 23.7207H42.9263L45.2355 17.6691H52.1155L54.3565 23.7207H57.737L50.4888 4.9375H46.9654H46.967ZM46.1893 15.1679L48.7271 8.5148L51.1903 15.1679H46.1893Z" fill="white"></path><path d="M132.207 23.7223H144.423V20.9354H135.151V15.579H141.477V13.0793H135.151V7.72285H144.423V4.93591H132.207V23.7223Z" fill="white"></path></g><defs><clipPath id="clip0_3383_14601"><rect width="161.02" height="24" fill="white"></rect></clipPath></defs></svg>